<svg width="81" height="80" viewBox="0 0 81 80" fill="none" xmlns="http://www.w3.org/2000/svg">
<path d="M50.5002 46.6663C41.6002 46.6663 23.8335 51.0997 23.8335 59.9997V66.6663H77.1668V59.9997C77.1668 51.0997 59.4002 46.6663 50.5002 46.6663ZM50.5002 39.9997C54.0364 39.9997 57.4278 38.5949 59.9282 36.0944C62.4287 33.5939 63.8335 30.2026 63.8335 26.6663C63.8335 23.1301 62.4287 19.7387 59.9282 17.2383C57.4278 14.7378 54.0364 13.333 50.5002 13.333C46.9639 13.333 43.5726 14.7378 41.0721 17.2383C38.5716 19.7387 37.1668 23.1301 37.1668 26.6663C37.1668 30.2026 38.5716 33.5939 41.0721 36.0944C43.5726 38.5949 46.9639 39.9997 50.5002 39.9997ZM17.1668 44.2663L25.3335 49.233L23.1668 39.8663L30.5002 33.5997L20.8668 32.7663L17.1668 23.9663L13.4002 32.7663L3.8335 33.5997L11.1002 39.8663L8.8335 49.233L17.1668 44.2663Z" fill="#575757"/>
</svg>
