<svg width="81" height="80" viewBox="0 0 81 80" fill="none" xmlns="http://www.w3.org/2000/svg">
<path d="M40.5002 10C47.8668 10 53.8335 15.9667 53.8335 23.3333C53.8335 30.7 47.8668 36.6667 40.5002 36.6667C33.1335 36.6667 27.1668 30.7 27.1668 23.3333C27.1668 15.9667 33.1335 10 40.5002 10ZM53.8335 45.1333C53.8335 48.6667 52.9002 56.9 46.5335 66.1L43.8335 50L46.9668 43.7333C44.9002 43.5 42.7335 43.3333 40.5002 43.3333C38.2668 43.3333 36.1002 43.5 34.0335 43.7333L37.1668 50L34.4668 66.1C28.1002 56.9 27.1668 48.6667 27.1668 45.1333C19.2002 47.4667 13.8335 51.6667 13.8335 56.6667V70H67.1668V56.6667C67.1668 51.6667 61.8335 47.4667 53.8335 45.1333Z" fill="#575757"/>
</svg>
