<svg width="100" height="100" viewBox="0 0 100 100" fill="none" xmlns="http://www.w3.org/2000/svg">
<path d="M62.4998 58.3332C51.3748 58.3332 29.1665 63.8748 29.1665 74.9998V83.3332H95.8332V74.9998C95.8332 63.8748 73.6248 58.3332 62.4998 58.3332ZM62.4998 49.9998C66.9201 49.9998 71.1593 48.2439 74.285 45.1183C77.4106 41.9927 79.1665 37.7534 79.1665 33.3332C79.1665 28.9129 77.4106 24.6737 74.285 21.5481C71.1593 18.4225 66.9201 16.6665 62.4998 16.6665C58.0796 16.6665 53.8403 18.4225 50.7147 21.5481C47.5891 24.6737 45.8332 28.9129 45.8332 33.3332C45.8332 37.7534 47.5891 41.9927 50.7147 45.1183C53.8403 48.2439 58.0796 49.9998 62.4998 49.9998ZM20.8332 55.3332L31.0415 61.5415L28.3332 49.8332L37.4998 41.9998L25.4582 40.9582L20.8332 29.9582L16.1248 40.9582L4.1665 41.9998L13.2498 49.8332L10.4165 61.5415L20.8332 55.3332Z" fill="#E4C289"/>
</svg>
