<svg width="100" height="100" viewBox="0 0 68 76" fill="none" xmlns="http://www.w3.org/2000/svg">
<path d="M33.9998 0.5C43.2082 0.5 50.6665 7.95833 50.6665 17.1667C50.6665 26.375 43.2082 33.8333 33.9998 33.8333C24.7915 33.8333 17.3332 26.375 17.3332 17.1667C17.3332 7.95833 24.7915 0.5 33.9998 0.5ZM50.6665 44.4167C50.6665 48.8333 49.4998 59.125 41.5415 70.625L38.1665 50.5L42.0832 42.6667C39.4998 42.375 36.7915 42.1667 33.9998 42.1667C31.2082 42.1667 28.4998 42.375 25.9165 42.6667L29.8332 50.5L26.4582 70.625C18.4998 59.125 17.3332 48.8333 17.3332 44.4167C7.37484 47.3333 0.666504 52.5833 0.666504 58.8333V75.5H67.3332V58.8333C67.3332 52.5833 60.6665 47.3333 50.6665 44.4167Z" fill="#E4C289"/>
</svg>
