<svg width="81" height="80" viewBox="0 0 81 80" fill="none" xmlns="http://www.w3.org/2000/svg">
<g clip-path="url(#clip0_531_26)">
<path d="M40.5 18.333C43.5942 18.333 46.5617 19.5622 48.7496 21.7501C50.9375 23.938 52.1667 26.9055 52.1667 29.9997C52.1667 33.0939 50.9375 36.0613 48.7496 38.2493C46.5617 40.4372 43.5942 41.6663 40.5 41.6663C37.4058 41.6663 34.4383 40.4372 32.2504 38.2493C30.0625 36.0613 28.8333 33.0939 28.8333 29.9997C28.8333 26.9055 30.0625 23.938 32.2504 21.7501C34.4383 19.5622 37.4058 18.333 40.5 18.333ZM17.1667 26.6663C19.0333 26.6663 20.7667 27.1663 22.2667 28.0663C21.7667 32.833 23.1667 37.5663 26.0333 41.2663C24.3667 44.4663 21.0333 46.6663 17.1667 46.6663C14.5145 46.6663 11.971 45.6128 10.0956 43.7374C8.22024 41.862 7.16667 39.3185 7.16667 36.6663C7.16667 34.0142 8.22024 31.4706 10.0956 29.5953C11.971 27.7199 14.5145 26.6663 17.1667 26.6663ZM63.8333 26.6663C66.4855 26.6663 69.029 27.7199 70.9044 29.5953C72.7798 31.4706 73.8333 34.0142 73.8333 36.6663C73.8333 39.3185 72.7798 41.862 70.9044 43.7374C69.029 45.6128 66.4855 46.6663 63.8333 46.6663C59.9667 46.6663 56.6333 44.4663 54.9667 41.2663C57.8333 37.5663 59.2333 32.833 58.7333 28.0663C60.2333 27.1663 61.9667 26.6663 63.8333 26.6663ZM18.8333 60.833C18.8333 53.933 28.5333 48.333 40.5 48.333C52.4667 48.333 62.1667 53.933 62.1667 60.833V66.6663H18.8333V60.833ZM0.5 66.6663V61.6663C0.5 57.033 6.8 53.133 15.3333 51.9997C13.3667 54.2663 12.1667 57.3997 12.1667 60.833V66.6663H0.5ZM80.5 66.6663H68.8333V60.833C68.8333 57.3997 67.6333 54.2663 65.6667 51.9997C74.2 53.133 80.5 57.033 80.5 61.6663V66.6663Z" fill="#575757"/>
</g>
<defs>
<clipPath id="clip0_531_26">
<rect width="80" height="80" fill="white" transform="translate(0.5)"/>
</clipPath>
</defs>
</svg>
