<svg width="100" height="100" viewBox="0 0 100 100" fill="none" xmlns="http://www.w3.org/2000/svg">
<path d="M50 22.9165C53.8677 22.9165 57.5771 24.453 60.312 27.1879C63.0469 29.9228 64.5833 33.6321 64.5833 37.4998C64.5833 41.3676 63.0469 45.0769 60.312 47.8118C57.5771 50.5467 53.8677 52.0832 50 52.0832C46.1323 52.0832 42.4229 50.5467 39.688 47.8118C36.9531 45.0769 35.4167 41.3676 35.4167 37.4998C35.4167 33.6321 36.9531 29.9228 39.688 27.1879C42.4229 24.453 46.1323 22.9165 50 22.9165M20.8333 33.3332C23.1667 33.3332 25.3333 33.9582 27.2083 35.0832C26.5833 41.0415 28.3333 46.9582 31.9167 51.5832C29.8333 55.5832 25.6667 58.3332 20.8333 58.3332C17.5181 58.3332 14.3387 57.0162 11.9945 54.672C9.65029 52.3278 8.33333 49.1484 8.33333 45.8332C8.33333 42.518 9.65029 39.3385 11.9945 36.9943C14.3387 34.6501 17.5181 33.3332 20.8333 33.3332M79.1667 33.3332C82.4819 33.3332 85.6613 34.6501 88.0055 36.9943C90.3497 39.3385 91.6667 42.518 91.6667 45.8332C91.6667 49.1484 90.3497 52.3278 88.0055 54.672C85.6613 57.0162 82.4819 58.3332 79.1667 58.3332C74.3333 58.3332 70.1667 55.5832 68.0833 51.5832C71.6667 46.9582 73.4167 41.0415 72.7917 35.0832C74.6667 33.9582 76.8333 33.3332 79.1667 33.3332ZM22.9167 76.0415C22.9167 67.4165 35.0417 60.4165 50 60.4165C64.9583 60.4165 77.0833 67.4165 77.0833 76.0415V83.3332H22.9167V76.0415ZM0 83.3332V77.0832C0 71.2915 7.875 66.4165 18.5417 64.9998C16.0833 67.8332 14.5833 71.7498 14.5833 76.0415V83.3332H0ZM100 83.3332H85.4167V76.0415C85.4167 71.7498 83.9167 67.8332 81.4583 64.9998C92.125 66.4165 100 71.2915 100 77.0832V83.3332Z" fill="#E4C289"/>
</svg>
